<svg xmlns="http://www.w3.org/2000/svg" width="200" height="97.852"><path d="M5.168 79.253H.074a3.864 3.864 0 0 0-.049-.213 1.009 1.009 0 0 1-.024-.216v-.241a1.076 1.076 0 0 1 .361-.8 1.529 1.529 0 0 1 1.106-.349h11.05a.763.763 0 0 0 .025.215 1.092 1.092 0 0 0 .012.181 1.275 1.275 0 0 1 .012.155 1.244 1.244 0 0 1-.361.9 1.47 1.47 0 0 1-1.106.37H7.3v14.247H5.168z" fill="#434139"/><path d="M22.44 93.5l-1.608-4.321h-6.487L12.782 93.5h-2.114l5.815-15.927a3.191 3.191 0 0 1 .506-.143 3.129 3.129 0 0 1 .67-.073 1.693 1.693 0 0 1 .83.2 1.39 1.39 0 0 1 .588.783l5.55 15.156zm-4.851-13.691l-2.716 7.664h5.407z" fill="#434139"/><path d="M28.881 77.357a1.25 1.25 0 0 1 .8.239 1.849 1.849 0 0 1 .495.649l4.467 9.707 4.469-9.658a1.417 1.417 0 0 1 .663-.755 1.833 1.833 0 0 1 .778-.183 3.543 3.543 0 0 1 .6.05 4.436 4.436 0 0 1 .455.094l1.129 16h-1.961l-.865-12.635-4.279 8.986H33.59l-4.062-8.578-.886 12.227h-1.994l1.2-16c.113-.031.255-.064.431-.094a3.263 3.263 0 0 1 .602-.049z" fill="#434139"/><path d="M48.224 93.5h-2.092V77.407a.684.684 0 0 0 .192-.026 1.068 1.068 0 0 0 .18-.012 1.746 1.746 0 0 1 .2-.012 2 2 0 0 1 .468.061 1.6 1.6 0 0 1 .495.216 1.171 1.171 0 0 1 .4.457 1.666 1.666 0 0 1 .157.78zm.433-8.165v-.771l5.74-6.414a3.109 3.109 0 0 1 .684-.577 1.324 1.324 0 0 1 .661-.166 1.637 1.637 0 0 1 .494.081 3.316 3.316 0 0 1 .443.183 2.309 2.309 0 0 1 .455.239l-6.221 6.942 6.68 8.554a4.139 4.139 0 0 1-.663.207 3.118 3.118 0 0 1-.659.082 2.134 2.134 0 0 1-1.022-.215 2.619 2.619 0 0 1-.757-.673z" fill="#434139"/><path d="M61.702 84.182h5.45v1.847h-5.45V91.7h6.1a1.489 1.489 0 0 1 1.136.373 1.3 1.3 0 0 1 .352.924 1.075 1.075 0 0 1-.012.183 1.323 1.323 0 0 0-.014.154v.166h-9.656V77.43h9.276a.856.856 0 0 1 .047.253v.251a1.39 1.39 0 0 1-.314.925 1.454 1.454 0 0 1-1.153.373h-5.762z" fill="#434139"/><path d="M73.929 84.182h5.453v1.847h-5.454V91.7h6.1a1.511 1.511 0 0 1 1.143.373 1.315 1.315 0 0 1 .349.924 1.118 1.118 0 0 1-.014.183.957.957 0 0 0-.014.154v.166h-9.656V77.43h9.273a.773.773 0 0 1 .047.253v.251a1.4 1.4 0 0 1-.311.925 1.449 1.449 0 0 1-1.153.373h-5.768z" fill="#434139"/><path d="M94.208 90.308v-12.9a.609.609 0 0 0 .167-.026 1.364 1.364 0 0 0 .18-.012c.072-.007.15-.012.23-.012a1.9 1.9 0 0 1 .457.061 1.218 1.218 0 0 1 .443.216 1.149 1.149 0 0 1 .337.457 1.933 1.933 0 0 1 .131.78v14.629h-1.945l-8.17-12.468v12.468h-1.945V77.479a2.416 2.416 0 0 1 .408-.087 3.991 3.991 0 0 1 .527-.035 1.6 1.6 0 0 1 .832.183 1.732 1.732 0 0 1 .563.61z" fill="#434139"/><path d="M199.4 82.859a1.459 1.459 0 0 0-.473-.208 1.915 1.915 0 0 0-.649-.047 1.478 1.478 0 0 1-.188.012.536.536 0 0 1-.1.021v5.3a5.7 5.7 0 0 1-.394 2.524 2.2 2.2 0 0 1-2.21 1.088h-9.691a7.688 7.688 0 0 0 .209-1.838 6.4 6.4 0 0 0-1.413-4.286 5.143 5.143 0 0 0-4.1-1.734 5.261 5.261 0 0 0-4.134 1.706 6.455 6.455 0 0 0-1.488 4.341 8.972 8.972 0 0 0 .183 1.812h-10.995a9.175 9.175 0 0 0-2.33-6.15 8.5 8.5 0 0 0-6.433-2.5h-2.286l1.266-2.18.012.008 1.9-3.3a.993.993 0 0 1-.089-.078 1.391 1.391 0 0 1-.148-.1 1.158 1.158 0 0 0-.162-.105 1.936 1.936 0 0 0-.421-.175 1.512 1.512 0 0 0-.514-.056 1.139 1.139 0 0 0-.541.188 1.07 1.07 0 0 0-.338.349l-.028.026-1.135 1.891q-1.877 3.347-3 5.382l-.035.061h5.52a6.093 6.093 0 0 1 5.05 2.128 7.825 7.825 0 0 1 1.439 4.612h-28.439l.035-.111a6.909 6.909 0 0 0 .443-2.681l-.009-4.725a1.677 1.677 0 0 0-.143-.754 1.118 1.118 0 0 0-.38-.434 1.324 1.324 0 0 0-.471-.207 1.852 1.852 0 0 0-.65-.049 1.248 1.248 0 0 1-.19.014.663.663 0 0 1-.1.021l.009 5.313a5.9 5.9 0 0 1-.394 2.55 2.272 2.272 0 0 1-2.217 1.062h-10.633l.019-.1a11.038 11.038 0 0 0 .314-2.742v-4.674a1.625 1.625 0 0 0-.145-.754 1.109 1.109 0 0 0-.375-.434 1.382 1.382 0 0 0-.476-.207 1.852 1.852 0 0 0-.65-.049 1.194 1.194 0 0 1-.187.014.634.634 0 0 1-.1.021v5.712c0 4.706-2.133 7.633-5.571 7.633-3.365 0-5.54-3-5.54-7.633v-4.3a1.576 1.576 0 0 0-.2-.754 1.083 1.083 0 0 0-.375-.434 1.4 1.4 0 0 0-.471-.207 1.869 1.869 0 0 0-.651-.049 1.27 1.27 0 0 1-.188.014.808.808 0 0 1-.1.021v6.082c0 5.3 3.166 9.142 7.53 9.142a7.21 7.21 0 0 0 6.494-4.359l.016-.033h57.9l.019.026a5.589 5.589 0 0 0 9 0l.019-.026h11.168c2.606 0 3.93-1.582 3.93-4.7v-4.718a1.582 1.582 0 0 0-.145-.75 1.094 1.094 0 0 0-.38-.433zm-19.047 11.154a2.925 2.925 0 0 1-2.583-1.278 5.092 5.092 0 0 1-.734-2.887 5.449 5.449 0 0 1 .734-3.049 3.015 3.015 0 0 1 2.69-1.385 2.71 2.71 0 0 1 2.48 1.28 5.049 5.049 0 0 1 .708 2.833c-.003 2.979-1.103 4.486-3.294 4.486z" fill="#434139"/><path d="M198.861 81.222a1.138 1.138 0 1 0-1.139-1.136 1.138 1.138 0 0 0 1.139 1.136z" fill="#434139"/><path d="M194.886 81.222a1.138 1.138 0 1 0-1.141-1.136 1.136 1.136 0 0 0 1.141 1.136z" fill="#434139"/><path d="M132.988 95.033a1.138 1.138 0 1 0 1.139 1.137 1.137 1.137 0 0 0-1.139-1.137z" fill="#434139"/><path d="M129.008 95.033a1.138 1.138 0 1 0 1.141 1.137 1.136 1.136 0 0 0-1.141-1.137z" fill="#434139"/><path d="M111.336 81.222a1.138 1.138 0 1 0-1.139-1.136 1.135 1.135 0 0 0 1.139 1.136z" fill="#434139"/><g fill="#abaf0c"><path d="M85.023 60.612a16.6 16.6 0 0 0 2.433-.23c.26-.045.52-.092.778-.148a16.924 16.924 0 0 0 4.874-1.878 18.7 18.7 0 0 0 4.743-4.339A17.047 17.047 0 0 0 99.3 51.95l.028-.047-.024-.05c-.41-.85-.792-1.713-1.132-2.564a35.081 35.081 0 0 1-1.686-4.576l-.026-.106-.1.035c-.675.223-1.39.436-2.119.638l-.1.025.024.094a39.92 39.92 0 0 0 2.367 6.405l.044.1-.063.086a15.373 15.373 0 0 1-4.605 4.278 14.6 14.6 0 0 1-4.8 1.734c-.248.042-.5.08-.746.108a14.638 14.638 0 0 1-2.322.087 12.206 12.206 0 0 1-.794-.054 14.608 14.608 0 0 1-11.894-20.66l.026-.056-.042-.049a17.861 17.861 0 0 1-1.462-1.971l-.089-.143-.081.147a17.017 17.017 0 0 0 14.484 25.2c.28.006.558.011.835.001z"/><path d="M86.853 46.09l.1-.009a43.013 43.013 0 0 0 6.183-1.067l.26-.068c.238-.064.478-.124.715-.188.7-.195 1.418-.41 2.133-.644.223-.072.443-.15.691-.237.694-.244 1.382-.5 2.046-.773l.208-.085-.2-.1a42.843 42.843 0 0 1-2.452-1.268l-.206-.118-.042.014c-.15.054-.3.106-.455.157l-.1.032c-.727.249-1.444.469-2.133.659-.234.068-.474.129-.71.19a39.939 39.939 0 0 1-4.617.9c-.966.131-1.921.227-2.848.288h-.051l-.026.045a17.084 17.084 0 0 0-1.661 13.743l.021.065.07.006c.286.016.577.026.863.026a14.471 14.471 0 0 0 1.468-.076l.124-.014-.042-.118a14.719 14.719 0 0 1 .614-11.277z"/><path d="M95.33 32.766l-.164.108a39.306 39.306 0 0 0-2.271 1.631l-.038.031v.382a41.404 41.404 0 0 0 .553 6.865l.016.111.108-.031c.642-.178 1.31-.384 1.985-.61l.239-.084-.012-.082c-.04-.258-.075-.518-.112-.776a39.942 39.942 0 0 1-.311-7.346z"/><path d="M69.4 34.761c-.769-1.435-.959-1.924-.959-1.924l-4.589 1.914s4.559 1.983 4.582 1.932a16.338 16.338 0 0 1 .966-1.922z"/><path d="M61.539 34.744l.989.586.975-.584-.972-.586z"/><path d="M114.903 60.606a16.559 16.559 0 0 0 1.017-2.222c.091-.247.181-.5.261-.748a16.953 16.953 0 0 0 .812-5.16 18.721 18.721 0 0 0-1.387-6.277 17.019 17.019 0 0 0-1.066-2.288l-.027-.048h-.054c-.942-.07-1.88-.171-2.786-.3a35.108 35.108 0 0 1-4.807-.828l-.1-.031-.021.107a45.98 45.98 0 0 1-.507 2.154l-.026.1.093.026a39.965 39.965 0 0 0 6.731 1.152l.107.01.043.1a15.38 15.38 0 0 1 1.4 6.128 14.564 14.564 0 0 1-.9 5.022c-.087.236-.18.472-.278.7a14.686 14.686 0 0 1-1.087 2.055c-.142.227-.289.446-.444.661a14.608 14.608 0 0 1-23.838-.029l-.036-.051-.064.012a17.812 17.812 0 0 1-2.438.281l-.168.006.087.145a17.017 17.017 0 0 0 29.063.056c.145-.248.287-.488.42-.733z"/><path d="M105.454 45.777l.071-.259c.064-.239.131-.477.195-.713.182-.7.354-1.433.509-2.169.048-.23.091-.459.141-.717.135-.723.254-1.449.353-2.159l.031-.223-.185.125a43.067 43.067 0 0 1-2.324 1.489l-.206.12-.008.044c-.028.157-.06.315-.092.472l-.022.1a33.12 33.12 0 0 1-.5 2.176c-.059.237-.125.475-.191.71a40.045 40.045 0 0 1-1.525 4.451c-.369.9-.763 1.778-1.174 2.61l-.024.046.026.045a17.082 17.082 0 0 0 11.071 8.31l.067.015.04-.058c.157-.24.31-.487.454-.735a14.31 14.31 0 0 0 .668-1.308l.05-.114-.123-.023a14.534 14.534 0 0 1-9.46-6.031l-.057-.087.043-.094a44.773 44.773 0 0 0 2.172-6.023z"/><path d="M100.853 43.143c.638.279 1.289.542 1.937.785l.1.041.029-.109c.166-.645.321-1.327.464-2.024l.047-.25-.077-.031c-.243-.094-.486-.194-.728-.29a40.364 40.364 0 0 1-6.519-3.405l-.166-.106.012.2c.057.912.151 1.852.277 2.782l.008.048.33.193a42 42 0 0 0 3.394 1.77q.445.201.892.396z"/><path d="M82.555 61.076l-.636 4.931s4-2.956 3.964-3a16.343 16.343 0 0 1-1.182-1.8c-1.626-.048-2.146-.131-2.146-.131z"/><path d="M80.751 66.859l.01 1.15 1-.563-.018-1.136z"/><path d="M129.839 34.724a16.543 16.543 0 0 0-1.415-1.992c-.169-.2-.339-.4-.517-.6a16.939 16.939 0 0 0-4.064-3.283 18.717 18.717 0 0 0-6.128-1.938 17.113 17.113 0 0 0-2.515-.22h-.054l-.031.045a41.133 41.133 0 0 1-1.655 2.262 35.2 35.2 0 0 1-3.12 3.749l-.078.074.082.072c.53.474 1.072.986 1.611 1.516l.071.071.069-.067a39.955 39.955 0 0 0 4.363-5.253l.064-.084.106.011a15.369 15.369 0 0 1 6.008 1.85 14.542 14.542 0 0 1 3.9 3.288c.161.194.319.392.467.591a14.7 14.7 0 0 1 1.237 1.968q.188.354.351.715a14.608 14.608 0 0 1-11.945 20.63l-.062.006-.022.062a17.718 17.718 0 0 1-.976 2.252l-.079.148h.169a17.017 17.017 0 0 0 14.58-25.142c-.134-.25-.273-.494-.417-.731z"/><path d="M110.295 36.92a39.975 39.975 0 0 1 3.093 3.546c.6.771 1.159 1.55 1.674 2.322l.028.044h.051a17.086 17.086 0 0 0 12.733-5.433l.046-.051-.031-.063c-.13-.256-.266-.512-.409-.761a14.27 14.27 0 0 0-.8-1.232l-.073-.1-.081.1a14.723 14.723 0 0 1-10.073 5.108l-.1.005-.061-.084a42.985 42.985 0 0 0-4.015-4.822l-.19-.19c-.175-.175-.346-.352-.519-.525a50.949 50.949 0 0 0-1.624-1.526c-.175-.156-.352-.308-.551-.48a46.87 46.87 0 0 0-1.692-1.384l-.178-.139.016.223c.075.939.115 1.868.129 2.757v.238l.033.029c.121.1.243.209.364.316l.079.071c.579.5 1.128 1.015 1.637 1.517.171.163.344.337.514.514z"/><path d="M107.691 38.161a39.238 39.238 0 0 0 1.648-1.285l.087-.069-.08-.079a40.83 40.83 0 0 0-1.521-1.413l-.193-.166-.065.052c-.2.163-.412.324-.616.484a39.71 39.71 0 0 1-2.294 1.647c-.251.166-.5.333-.757.493a40.338 40.338 0 0 1-3.157 1.8l-.175.09.175.088c.819.406 1.679.8 2.548 1.151l.046.017.332-.189c.27-.153.539-.31.8-.473.828-.5 1.643-1.032 2.427-1.582.271-.182.538-.376.795-.566z"/><path d="M115.259 61.18a21.454 21.454 0 0 1-1.187 1.792l3.952 3.017s-.561-4.939-.618-4.934a16.325 16.325 0 0 1-2.147.125z"/><path d="M118.178 67.429l1 .566.013-1.15-.992-.552z"/><path d="M114.893 8.85a16.481 16.481 0 0 0-2.433.23c-.26.045-.52.091-.778.148a16.962 16.962 0 0 0-4.876 1.877 18.725 18.725 0 0 0-4.742 4.339 17.079 17.079 0 0 0-1.448 2.068l-.027.047.023.049c.41.85.792 1.713 1.132 2.564a35.25 35.25 0 0 1 1.687 4.576l.025.105.1-.035c.675-.222 1.39-.435 2.119-.637l.1-.026-.024-.093a39.881 39.881 0 0 0-2.367-6.4l-.044-.1.064-.087a15.367 15.367 0 0 1 4.605-4.278 14.572 14.572 0 0 1 4.8-1.733c.248-.042.5-.08.745-.109a14.658 14.658 0 0 1 2.324-.087q.4.015.794.054a14.608 14.608 0 0 1 11.893 20.66l-.025.056.042.05a17.612 17.612 0 0 1 1.462 1.971l.089.143.082-.148a17.017 17.017 0 0 0-14.483-25.2c-.282-.008-.562-.01-.839-.004z"/><path d="M114.488 25.68h.051l.026-.044a17.1 17.1 0 0 0 1.662-13.744l-.021-.065h-.071a15.54 15.54 0 0 0-.863-.026 14.335 14.335 0 0 0-1.468.076l-.124.014.042.118a14.724 14.724 0 0 1-.614 11.277l-.047.093-.1.01a42.892 42.892 0 0 0-6.183 1.066l-.26.068c-.239.064-.477.124-.714.187-.7.195-1.419.411-2.133.644-.222.073-.443.151-.692.238-.693.243-1.383.5-2.045.773l-.209.085.2.1c.85.4 1.675.834 2.452 1.267l.207.118.041-.014c.15-.053.3-.105.456-.157l.1-.032a36.789 36.789 0 0 1 2.843-.848 40 40 0 0 1 4.618-.905c.963-.141 1.92-.239 2.846-.299z"/><path d="M104.585 36.695l.164-.108a39.442 39.442 0 0 0 2.271-1.631l.038-.031v-.382c0-.31 0-.622-.008-.933a41.991 41.991 0 0 0-.156-2.892c-.032-.325-.063-.648-.1-.971a39.615 39.615 0 0 0-.288-2.07l-.016-.11-.109.03c-.642.179-1.31.385-1.984.61l-.239.084.012.082c.04.257.074.518.112.775.127.928.218 1.873.279 2.81.018.3.037.6.049.9a41.127 41.127 0 0 1-.017 3.635z"/><path d="M130.515 34.706c.768 1.433.958 1.924.958 1.924l4.59-1.913s-4.558-1.984-4.582-1.932a16.537 16.537 0 0 1-.966 1.921z"/><path d="M137.388 34.131l-.975.583.973.586.991-.583z"/><path d="M85.012 8.856a16.463 16.463 0 0 0-1.017 2.222c-.091.248-.182.5-.261.748a16.955 16.955 0 0 0-.812 5.161 18.721 18.721 0 0 0 1.384 6.276 17.073 17.073 0 0 0 1.067 2.287l.026.047.054.005c.941.071 1.88.171 2.786.3a35.238 35.238 0 0 1 4.807.827l.1.031.021-.107c.145-.7.318-1.421.508-2.153l.025-.1-.093-.026a39.964 39.964 0 0 0-6.73-1.152l-.108-.011-.044-.1a15.368 15.368 0 0 1-1.4-6.128 14.546 14.546 0 0 1 .9-5.021c.087-.236.18-.472.278-.7a14.6 14.6 0 0 1 1.087-2.056c.142-.226.289-.446.443-.661a14.608 14.608 0 0 1 23.839.03l.036.05.064-.012a17.653 17.653 0 0 1 2.438-.281l.168-.006-.087-.145a17.017 17.017 0 0 0-29.063-.056c-.141.246-.283.488-.416.731z"/><path d="M94.462 23.684l-.071.259c-.064.239-.132.476-.195.712-.182.7-.354 1.434-.509 2.169-.048.229-.091.459-.14.718a46.1 46.1 0 0 0-.353 2.158l-.031.223.186-.125a43.701 43.701 0 0 1 2.323-1.49l.206-.12.008-.043c.029-.156.06-.314.093-.473l.021-.1c.149-.754.315-1.485.5-2.176.059-.237.126-.475.191-.709a39.924 39.924 0 0 1 1.525-4.451c.369-.9.763-1.8 1.174-2.63l.024-.045-.025-.045a17.239 17.239 0 0 0-11.072-8.292l-.067-.014-.04.059c-.157.24-.31.486-.454.734a14.247 14.247 0 0 0-.668 1.309l-.05.114.123.023a14.526 14.526 0 0 1 9.46 6.026l.056.087-.043.095a44.743 44.743 0 0 0-2.172 6.027z"/><path d="M97.126 25.532l-.1-.041-.029.109a39.935 39.935 0 0 0-.464 2.024l-.046.25.077.031c.242.095.486.195.728.291a40.351 40.351 0 0 1 3.379 1.572 40.79 40.79 0 0 1 3.14 1.832l.165.106-.011-.2a39.498 39.498 0 0 0-.277-2.782l-.008-.048-.33-.192a41.999 41.999 0 0 0-3.393-1.771c-.3-.135-.593-.269-.891-.4a47.036 47.036 0 0 0-1.94-.781z"/><path d="M117.36 8.385l.636-4.931s-4 2.955-3.964 3a16.577 16.577 0 0 1 1.182 1.8 21.427 21.427 0 0 1 2.146.131z"/><path d="M119.165 2.602l-.009-1.15-1 .564.017 1.135z"/><path d="M70.081 34.737a16.412 16.412 0 0 0 1.415 1.991c.169.2.339.405.517.6a16.944 16.944 0 0 0 4.064 3.284 18.712 18.712 0 0 0 6.128 1.937 17.054 17.054 0 0 0 2.514.22h.054l.032-.044a41.12 41.12 0 0 1 1.654-2.262 35.151 35.151 0 0 1 3.12-3.749l.078-.075-.082-.072a47.12 47.12 0 0 1-1.611-1.516l-.071-.071-.069.067a40.02 40.02 0 0 0-4.363 5.253l-.063.088-.107-.012a15.369 15.369 0 0 1-6.007-1.849 14.57 14.57 0 0 1-3.9-3.288c-.16-.193-.318-.392-.467-.59a14.75 14.75 0 0 1-1.237-1.969q-.187-.353-.351-.714a14.608 14.608 0 0 1 11.946-20.63l.061-.006.022-.062a17.649 17.649 0 0 1 .976-2.252l.079-.148h-.169a17.018 17.018 0 0 0-14.58 25.142c.13.245.269.49.417.727z"/><path d="M89.621 32.541a40.037 40.037 0 0 1-3.092-3.546c-.6-.771-1.159-1.55-1.675-2.322l-.028-.044h-.051a17.1 17.1 0 0 0-12.733 5.433l-.046.051.031.064c.129.256.265.512.408.76a14.1 14.1 0 0 0 .8 1.233l.073.1.081-.1a14.722 14.722 0 0 1 10.073-5.107l.1-.006.061.085a42.783 42.783 0 0 0 4.015 4.821l.189.191c.174.175.346.352.519.524.519.51 1.065 1.024 1.624 1.526.174.157.352.308.552.48.556.479 1.128.945 1.691 1.385l.178.138-.015-.223a43.37 43.37 0 0 1-.129-2.757v-.238l-.033-.029q-.181-.155-.363-.317l-.079-.07a36.585 36.585 0 0 1-2.151-2.032z"/><path d="M92.224 31.3c-.56.413-1.114.845-1.648 1.284l-.087.069.08.079c.476.467.988.942 1.52 1.414l.193.165.065-.051c.2-.163.412-.324.615-.484a40.059 40.059 0 0 1 2.294-1.647c.251-.167.5-.333.757-.493a40.661 40.661 0 0 1 3.157-1.8l.174-.09-.176-.089c-.819-.406-1.679-.8-2.547-1.151l-.046-.017-.331.19c-.27.152-.539.31-.8.472a42.988 42.988 0 0 0-3.22 2.149z"/><path d="M84.657 8.279a21.359 21.359 0 0 1 1.187-1.792L81.891 3.47s.562 4.938.619 4.934a16.632 16.632 0 0 1 2.147-.125z"/><path d="M81.737 2.032l-1-.567-.012 1.15.992.553z"/></g></svg>